<?xml version="1.0" encoding="utf-8"?>
<!-- Generator: Adobe Illustrator 24.0.3, SVG Export Plug-In . SVG Version: 6.00 Build 0)  -->
<svg version="1.1" id="Layer_1" xmlns="http://www.w3.org/2000/svg" xmlns:xlink="http://www.w3.org/1999/xlink" x="0px" y="0px"
	 viewBox="0 0 298 298" style="enable-background:new 0 0 298 298;" xml:space="preserve">
<style type="text/css">
	.st0{fill:#FFF3ED;}
	.st1{fill:#FFC4B4;}
	.st2{fill:#FFFFFF;}
	.st3{fill:#F66420;}
</style>
<title>products</title>
<circle id="Oval" class="st0" cx="149" cy="149" r="149"/>
<g>
	<circle class="st1" cx="99.9" cy="238.7" r="7.9"/>
	<circle class="st1" cx="260.1" cy="238.7" r="10.3"/>
	<rect x="82.8" y="101.8" class="st1" width="6.4" height="6.4"/>
	<rect x="89.2" y="99.2" class="st1" width="37.6" height="12"/>
	<path class="st1" d="M204.6,128.7v75.7h55.5v-75.7H204.6z M251.1,153.1h-32.3v-12.2h32.3V153.1z"/>
	<polygon class="st2" points="119.2,178.7 119.2,143.5 116.9,140.1 113.9,140.1 112.4,144.5 112.4,154 108.4,156.8 94.3,157.1 
		90.1,158.4 90.1,160.8 89.4,194.9 91,197.1 93.9,198.9 103.3,198.9 104.8,191.8 103.1,191.6 103.1,188.1 103.3,183.3 104.8,180.4 
		111.9,180.2 	"/>
	<path class="st2" d="M228,98h-63l-2.3,19.6l-6.5-2.2l-10,1l-6.8,3.7l-2.9,9.6v7.4l1.4,4.9l-1.4,4.9l1.4,4.5l-1.4,7.9v21.6h32.5h2.5
		v5.9l1.2,4.8l-1.8,3l2.7,2.2h31.3v-66.9l28.3-0.4L228,98z M197,129.4c-10.8,0-19.5-4.6-19.5-10.2c0-5.7,8.7-10.2,19.5-10.2
		s19.5,4.6,19.5,10.2C216.5,124.8,207.8,129.4,197,129.4z"/>
	<g>
		<path class="st3" d="M294.1,208.2c-2.9-2.8-7.7-2.7-8.2-2.6c-2.4,0-4.8,0-7.2,0c0.1-0.2,0.1-0.5,0.1-0.7v-75.7c0-1.1-0.9-2-2-2
			h-42.8c-1-13.3-2.6-26.6-3-29.5l3.7-7.4c0.5-1,0.1-2.2-0.9-2.7c-0.3-0.1-0.6-0.2-0.9-0.2h-71.7c-1.1,0-2,0.9-2,2
			c0,0.3,0.1,0.6,0.2,0.9l3.7,7.4c-0.2,2-1.1,9-1.9,17.5c-0.5-0.3-1-0.5-1.5-0.7v-12.7c0-0.8-0.5-1.5-1.3-1.7l-4.3-1.4
			c-1.1-0.4-2.3-0.4-3.5,0l-4.3,1.4c-0.7,0.2-1.3,0.9-1.3,1.7v12.7c-6.7,2.9-11,9.5-11,16.8v3.7c0,1.4,0.6,2.6,1.1,3.6
			c0.3,0.7,0.7,1.4,0.7,1.9c0,0.5-0.4,1.2-0.7,1.9c-0.5,1-1.1,2.2-1.1,3.6c0,1.4,0.6,2.6,1.1,3.6c0.3,0.7,0.7,1.4,0.7,1.9
			c0,0.5-0.4,1.2-0.7,1.9c-0.5,1-1.1,2.2-1.1,3.6v22h-5.5v-38.5c0-2.9-1.4-5.6-3.7-7.3h0v-11c0-1-0.8-1.8-1.8-1.8h-1.8v-7.3h1.8
			c4,0,7.3-3.3,7.3-7.3c0-4-3.3-7.3-7.3-7.3H88.3c-1,0-1.8,0.8-1.8,1.8H81c-1,0-1.8,0.8-1.8,1.8v7.3c0,1,0.8,1.8,1.8,1.8h5.5
			c0,1,0.8,1.8,1.8,1.8h1.8v5.5c0,1-0.8,1.8-1.8,1.8c-3,0-5.5,2.5-5.5,5.5c0,3,2.5,5.5,5.5,5.5c7.1,0,12.8-5.7,12.8-12.8v-5.5h5.5
			v7.3h-1.8c-1,0-1.8,0.8-1.8,1.8v11h0c-2.3,1.7-3.7,4.4-3.7,7.3v1.8c0,3-2.5,5.5-5.5,5.5h-3.7c-5.1,0-9.1,4.1-9.2,9.2v42.1
			c0,2.3,0.8,4.3,2.2,5.9c-4.1-0.7-7.5-2.3-8.5-6c-1.8-6.6-2.5-13.7-3-19.4c-1-11-2.2-22.1-3.4-32.9c-0.6-5.5-1.2-11.1-1.8-16.7
			c-0.5-4.6-1-9.2-1.4-13.9c-1.3-12.5-2.6-25.4-3.9-38c-0.7-6.6-2.6-16-11.3-21.3c-4.6-2.8-11.4-4.4-17.6-4.3v-0.2H9.4
			c-4.3,0-7.7,3.5-7.7,7.7v8.9c0,4.3,3.5,7.7,7.7,7.7h15.1c4.2,0,7.6-3.3,7.7-7.5c7.5,0.5,8.9,2.5,11.4,9.6c1.5,4.3,2,9.1,2.5,13.7
			c2,20.1,4.1,40.8,6.5,63.2c1.1,10.1,2.2,20.7,3.3,31.6c0.1,0.6,0.1,1.2,0.2,1.9c0.8,8.3,2.1,20.9,9.6,27.6
			c4.4,3.9,13.3,5,22.9,5.3c-5.5,3.7-9.1,9.9-9.1,17c0,11.3,9.2,20.4,20.4,20.4c11.3,0,20.4-9.2,20.4-20.4c0-7.2-3.8-13.6-9.5-17.2
			c0.5,0,1,0,1.4,0c7.3,0,14.7,0.1,21.8,0.1c14,0.1,28.5,0.2,42.8,0c17.8-0.2,38.7-0.1,58.9,0c4.4,0,8.8,0,13.2,0.1
			c-5.6,3.6-9.3,9.9-9.3,17.1c0,11.3,9.2,20.4,20.4,20.4c11.3,0,20.4-9.2,20.4-20.4c0-7.1-3.7-13.4-9.2-17.1c5.1,0,10,0,14.7-0.1
			c6.4-0.1,10.4-3.1,10.4-8.1C296.3,211.5,295.6,209.6,294.1,208.2z M86.5,107.3h-3.7v-3.7h3.7V107.3z M102.9,193.4v3.7h-9.2
			c-1,0-1.8-0.8-1.8-1.8v-34.8c0-1,0.8-1.8,1.8-1.8h14.6c3,0,5.5-2.5,5.5-5.5V144c0-1,0.8-1.8,1.8-1.8c1,0,1.8,0.8,1.8,1.8v34.8h-11
			c-3,0-5.5,2.5-5.5,5.5v7.3C101.1,192.6,101.9,193.4,102.9,193.4z M203,202.8h-30.5v-4H203V202.8z M168.9,204.4h-3.7v-5.5
			c0-1-0.8-1.8-1.8-1.8c-1,0-1.8,0.8-1.8,1.8v5.5h-3.7v-5.5c0-1-0.8-1.8-1.8-1.8s-1.8,0.8-1.8,1.8v5.5h-3.7v-5.5
			c0-1-0.8-1.8-1.8-1.8c-1,0-1.8,0.8-1.8,1.8v5.5h-3.7v-5.5c0-1-0.8-1.8-1.8-1.8s-1.8,0.8-1.8,1.8v5.5h-3.7v-5.5
			c0-1-0.8-1.8-1.8-1.8c-1,0-1.8,0.8-1.8,1.8v5.5h-3.7v-5.5c0-1-0.8-1.8-1.8-1.8s-1.8,0.8-1.8,1.8v5.5h-3.7v-5.5
			c0-1-0.8-1.8-1.8-1.8c-1,0-1.8,0.8-1.8,1.8v5.5h-3.7v-5.5c0-1-0.8-1.8-1.8-1.8c-1,0-1.8,0.8-1.8,1.8v5.5h-3.7v-11h62.3V204.4z
			 M262.8,131.1h12v71.7h-12V131.1z M258.8,131.1v71.7H207v-71.7H258.8z M197,127.1c-10.6,0-17.9-4.2-17.9-8c0-3.8,7.4-8,17.9-8
			s17.9,4.2,17.9,8C215,122.9,207.6,127.1,197,127.1z M229.7,91.2l-2,4h-61.3l-2-4H229.7z M166.9,99.2h60.2
			c0.5,4.3,1.9,16.1,2.8,27.9h-16.4c3.5-2.1,5.4-4.9,5.4-8c0-3.5-2.5-6.6-6.9-8.8c-4-2-9.4-3.1-15-3.1s-10.9,1.1-15,3.1
			c-4.5,2.2-6.9,5.4-6.9,8.8c0,3.5,2.5,6.6,6.9,8.8c4,2,9.4,3.1,15,3.1c2,0,4-0.1,6-0.4v16.5v23.5v24.2h-30.5v-1.5
			c1,0,1.8-0.8,1.8-1.8v-7.3c0-2.3-1.5-4.4-3.7-5.2v-22.3c0-1.3-0.6-2.5-1.1-3.6c-0.4-0.7-0.7-1.4-0.7-1.9c0-0.5,0.4-1.2,0.7-1.9
			c0.5-1,1.1-2.2,1.1-3.6c0-1.3-0.6-2.5-1.1-3.6c-0.4-0.7-0.7-1.4-0.7-1.9c0-0.5,0.4-1.2,0.7-1.9c0.5-1,1.1-2.2,1.1-3.6v-3.7
			c0-5.1-2.2-9.9-5.8-13.3C165.7,109.5,166.5,102.4,166.9,99.2z M148.7,103l3.1-1c0.4-0.1,0.8-0.1,1.2,0l3.1,1v2.5h-7.3V103z
			 M148.7,109.2h7.3v4c-2.4-0.5-4.9-0.5-7.3,0V109.2z M137.7,156.8c0-0.5,0.4-1.2,0.7-1.9c0.5-1,1.1-2.2,1.1-3.6
			c0-1.3-0.6-2.5-1.1-3.5c-0.4-0.7-0.7-1.4-0.7-2c0-0.5,0.4-1.2,0.7-1.9c0.5-1,1.1-2.2,1.1-3.6c0-1.3-0.6-2.5-1.1-3.5
			c-0.4-0.7-0.7-1.4-0.7-2v-3.7c0-8.1,6.5-14.7,14.6-14.7c8.1,0,14.7,6.5,14.7,14.6c0,0.1,0,0.2,0,0.2v3.5c0,0.5-0.4,1.3-0.7,2
			c-0.5,1-1.1,2.2-1.1,3.5c0,1.3,0.6,2.5,1.1,3.6c0.4,0.7,0.7,1.4,0.7,1.9c0,0.5-0.4,1.3-0.7,2c-0.5,1-1.1,2.2-1.1,3.5
			c0,1.3,0.6,2.5,1.1,3.6c0.4,0.7,0.7,1.4,0.7,1.9v22h-5.5v-16.5c0-1-0.8-1.8-1.8-1.8c-1,0-1.8,0.8-1.8,1.8v16.5h-3.7v-16.5
			c0-1-0.8-1.8-1.8-1.8s-1.8,0.8-1.8,1.8v16.5h-3.7v-16.5c0-1-0.8-1.8-1.8-1.8c-1,0-1.8,0.8-1.8,1.8v16.5h-5.5V156.8z M168.9,182.4
			c1,0,1.8,0.8,1.8,1.8v5.5h-65.9v-5.5c0-1,0.8-1.8,1.8-1.8H168.9z M97.5,118.3c0,5.1-4.1,9.1-9.2,9.2c-1,0-1.8-0.8-1.8-1.8
			s0.8-1.8,1.8-1.8c3,0,5.5-2.5,5.5-5.5v-5.5h3.7V118.3z M90.1,109.2v-7.3h33c2,0,3.7,1.6,3.7,3.7c0,2-1.6,3.7-3.7,3.7H90.1z
			 M117.6,112.8v7.3h-7.3v-7.3H117.6z M106.6,123.8h14.6v7.5c-0.6-0.1-1.2-0.2-1.8-0.2h-11c-0.6,0-1.2,0.1-1.8,0.2V123.8z
			 M84.6,156.8c0-3,2.5-5.5,5.5-5.5h3.7c2,0,3.9-0.6,5.5-1.8h5.5c1,0,1.8-0.8,1.8-1.8c0-1-0.8-1.8-1.8-1.8h-2.6
			c0.5-1.2,0.8-2.4,0.8-3.7h1.8c1,0,1.8-0.8,1.8-1.8s-0.8-1.8-1.8-1.8h-1.5c0.8-2.2,2.9-3.7,5.2-3.7h11c3,0,5.5,2.5,5.5,5.5v38.5
			h-3.7V144c0-3-2.5-5.5-5.5-5.5s-5.5,2.5-5.5,5.5v9.2c0,1-0.8,1.8-1.8,1.8H93.8c-3,0-5.5,2.5-5.5,5.5v34.8c0,3,2.5,5.5,5.5,5.5h9.2
			v3.7H90.1c-3,0-5.5-2.5-5.5-5.5V156.8z M28.9,68.8c0,2.4-1.9,4.3-4.3,4.3H9.4c-2.4,0-4.3-1.9-4.3-4.3V60c0-2.4,1.9-4.3,4.3-4.3
			h19.4V68.8z M116.9,238.9c0,9.4-7.6,17-17,17s-17-7.6-17-17c0-9.4,7.6-17,17-17S116.9,229.5,116.9,238.9z M277,238.9
			c0,9.4-7.6,17-17,17c-9.4,0-17-7.6-17-17c0-9.4,7.6-17,17-17C269.4,221.9,277,229.5,277,238.9z M285.8,218.4
			c-15.3,0.1-33,0-50.1,0c-20.2-0.1-41.1-0.2-58.9,0c-14.3,0.2-28.7,0.1-42.7,0c-7.1-0.1-14.5-0.1-21.8-0.1c-2.3,0-5.1,0.1-8,0.1
			c-12.2,0.3-30.6,0.8-36.3-4.3c-6.5-5.8-7.7-17.6-8.5-25.4c-0.1-0.7-0.1-1.3-0.2-1.9c-1.2-10.9-2.3-21.5-3.3-31.6
			c-2.3-22.4-4.5-43.1-6.5-63.2c-0.5-4.8-1-9.7-2.6-14.4c-2.9-8.4-5.3-11.3-14.6-11.9v-9.9c5.5-0.1,11.7,1.3,15.8,3.8
			c5.7,3.4,8.7,9.4,9.7,18.7c1.3,12.7,2.6,25.6,3.9,38.1c0.5,4.6,1,9.2,1.4,13.9c0.6,5.6,1.2,11.2,1.8,16.7
			c1.2,10.8,2.4,21.9,3.4,32.9c0.5,5.8,1.2,13.1,3.1,20c2.5,8.9,13.5,9,21.6,9c0.8,0,1.6,0,2.4,0c29.1,0.5,58.7,0.4,87.3,0.3
			c13.4-0.1,27.2-0.1,40.8-0.1c9.6,0,20.2,0,30.8,0c5.3,0,10.6,0,15.8,0c5.2,0,10.5,0,15.8,0l0.1,0c1.1-0.1,4.1,0.2,5.8,1.7
			c0.8,0.8,1.2,1.8,1.2,3.1C292.9,217.7,288.5,218.4,285.8,218.4z"/>
		<path class="st3" d="M89.4,238.9c0,5.8,4.7,10.5,10.5,10.5c5.8,0,10.5-4.7,10.5-10.5c0-5.8-4.7-10.5-10.5-10.5
			C94.1,228.4,89.4,233.1,89.4,238.9z M107,238.9c0,3.9-3.2,7.1-7.1,7.1c-3.9,0-7.1-3.2-7.1-7.1c0-3.9,3.2-7.1,7.1-7.1
			C103.8,231.8,107,235,107,238.9z"/>
		<path class="st3" d="M249.6,238.9c0,5.8,4.7,10.5,10.5,10.5c5.8,0,10.5-4.7,10.5-10.5c0-5.8-4.7-10.5-10.5-10.5
			C254.3,228.4,249.6,233.1,249.6,238.9z M267.1,238.9c0,3.9-3.2,7.1-7.1,7.1c-3.9,0-7.1-3.2-7.1-7.1c0-3.9,3.2-7.1,7.1-7.1
			C263.9,231.8,267.1,235,267.1,238.9z"/>
		<path class="st3" d="M221.1,154h27.5c2.1,0,3.8-1.7,3.8-3.8v-6.2c0-2.1-1.7-3.8-3.8-3.8h-27.5c-2.1,0-3.8,1.7-3.8,3.8v6.2
			C217.3,152.3,219,154,221.1,154z M220.7,143.9c0-0.2,0.2-0.4,0.4-0.4h27.5c0.2,0,0.4,0.2,0.4,0.4v6.2c0,0.2-0.2,0.4-0.4,0.4h-27.5
			c-0.2,0-0.4-0.2-0.4-0.4V143.9z"/>
	</g>
</g>
</svg>
